# xmcd
#
# Track frame offsets:
#	150
#	19194
#	37562
#	53671
#	71398
#	87633
#	107459
#	126196
#	143241
#	161417
#	184485
#	209089
#
# Disc length: 3030 seconds
#
# Revision: 0
# Processed by: cddbd v1.5.2PL0 Copyright (c) Steve Scherf et al.
# Submitted via: EasyCDDAExtractor 16.0.8.1
#
DISCID=a30bd40c
DTITLE=임재범 - Sixth Letter
DYEAR=2012
DGENRE=Pop
TTITLE0=어떤날, 너에게
TTITLE1=길 (Road)
TTITLE2=끝, 시작
TTITLE3=Dream of vision
TTITLE4=재회
TTITLE5=행복을 찾아서 (feat. 백아연)
TTITLE6=Sweet Love
TTITLE7=이 또한 지나 가리라
TTITLE8=지금, 여기
TTITLE9=가슴소리
TTITLE10=Angel
TTITLE11=사랑한다면 (Bonus Track)
EXTD=
EXTT0=
EXTT1=
EXTT2=
EXTT3=
EXTT4=
EXTT5=
EXTT6=
EXTT7=
EXTT8=
EXTT9=
EXTT10=
EXTT11=
PLAYORDER=
